<svg width="162" height="162" viewBox="0 0 162 162" fill="none" xmlns="http://www.w3.org/2000/svg">
<g clip-path="url(#clip0_0_265)">
<path d="M143.093 0H18.0577C13.2357 0.0441446 8.63214 1.558 5.25207 4.21109C1.87199 6.86419 -0.0101012 10.441 0.0166864 14.1607V26.6865H8.19441V14.1994C8.19409 12.1707 9.22843 10.2234 11.074 8.77817C12.9195 7.33293 15.428 6.50572 18.0577 6.47529H143.093C145.725 6.50238 148.238 7.32812 150.087 8.77372C151.937 10.2193 152.973 12.1685 152.973 14.1994V120.456H8.1777V100.155H0V126.893H161.117V14.2122C161.162 10.4858 159.29 6.89771 155.911 4.23383C152.533 1.56997 147.924 0.0475304 143.093 0Z" fill="#AAAAAA"/>
<path d="M8.19434 37.1021H0.0166016V89.7928H8.19434V37.1021Z" fill="#AAAAAA"/>
<path d="M34.0289 155.564H28.0875V131.671H19.9099V162.001H39.7032L54.106 131.671L45.3775 131.697L34.0289 155.564Z" fill="#AAAAAA"/>
<path d="M133.046 155.564H127.105L115.756 131.671H107.028L121.431 162.001H141.224V131.671H133.063L133.046 155.564Z" fill="#AAAAAA"/>
<path d="M56.6265 63.4529C56.7251 67.0893 58.213 70.6224 60.9037 73.6088C63.5945 76.5956 67.368 78.9031 71.7524 80.2422C76.1361 81.5817 80.9346 81.8925 85.547 81.1367C90.1595 80.3809 94.3793 78.5918 97.6789 75.9937C100.978 73.3951 103.21 70.1035 104.094 66.5309C104.979 62.9588 104.476 59.2642 102.65 55.9113C100.823 52.5579 97.754 49.6953 93.8272 47.682C89.9003 45.6687 85.2904 44.5943 80.5756 44.5935C74.1617 44.6547 68.04 46.6735 63.5517 50.2082C59.0631 53.743 56.573 58.5053 56.6265 63.4529ZM78.1222 48.5843V60.8781H83.0289V48.5843C87.826 49.065 92.2065 50.9359 95.28 53.8174C98.3534 56.699 99.8905 60.3749 99.5782 64.0984C99.2658 67.8223 97.1281 71.315 93.5984 73.867C90.0694 76.419 85.4129 77.839 80.5756 77.839C75.7376 77.839 71.0817 76.419 67.5521 73.867C64.023 71.315 61.8851 67.8223 61.5728 64.0984C61.2606 60.3749 62.7973 56.699 65.8711 53.8174C68.9446 50.9359 73.3251 49.065 78.1222 48.5843Z" fill="#AAAAAA"/>
<path d="M83.0289 31.733H78.1223V39.0966H83.0289V31.733Z" fill="#AAAAAA"/>
<path d="M69.1099 32.9834L64.5034 34.2965L67.6907 41.2223L72.2974 39.8964L69.1099 32.9834Z" fill="#AAAAAA"/>
<path d="M52.8042 40.3846L58.829 46.036L62.5841 43.5514L56.576 37.9128L52.8042 40.3846Z" fill="#AAAAAA"/>
<path d="M44.4765 49.2546L52.5707 52.9365L55.024 49.6022L46.9297 45.9204L44.4765 49.2546Z" fill="#AAAAAA"/>
<path d="M40.4882 59.8363L49.7005 61.1237L50.5517 57.3132L41.3393 56.0385L40.4882 59.8363Z" fill="#AAAAAA"/>
<path d="M40.4882 67.0584L41.3393 70.8558L50.5517 69.5815L49.7005 65.771L40.4882 67.0584Z" fill="#AAAAAA"/>
<path d="M55.024 77.2925L52.5707 73.9584L44.4765 77.6403L46.9131 80.9745L55.024 77.2925Z" fill="#AAAAAA"/>
<path d="M62.5674 83.343L58.8124 80.8715L52.8042 86.5101L56.5593 88.9948L62.5674 83.343Z" fill="#AAAAAA"/>
<path d="M69.1098 93.9131L72.2973 87.0002L67.6914 85.6738L64.4868 92.5998L69.1098 93.9131Z" fill="#AAAAAA"/>
<path d="M83.0289 87.8096H78.1223V95.173H83.0289V87.8096Z" fill="#AAAAAA"/>
<path d="M92.0406 93.9131L96.6473 92.5998L93.4591 85.6738L88.8531 87.0002L92.0406 93.9131Z" fill="#AAAAAA"/>
<path d="M98.566 83.3561L104.591 88.9948L108.346 86.5101L102.321 80.8715L98.566 83.3561Z" fill="#AAAAAA"/>
<path d="M116.674 77.6403L108.58 73.9584L106.127 77.3057L114.221 80.9871L116.674 77.6403Z" fill="#AAAAAA"/>
<path d="M120.663 67.0585L111.45 65.7843L110.599 69.5817L119.811 70.8564L120.663 67.0585Z" fill="#AAAAAA"/>
<path d="M119.811 56.0385L110.599 57.3258L111.45 61.1237L120.663 59.849L119.811 56.0385Z" fill="#AAAAAA"/>
<path d="M106.127 49.6022L108.58 52.9492L116.691 49.2675L114.238 45.9204L106.127 49.6022Z" fill="#AAAAAA"/>
<path d="M98.5828 43.5514L102.338 46.036L108.346 40.3974L104.591 37.9128L98.5828 43.5514Z" fill="#AAAAAA"/>
<path d="M92.0575 32.9834L88.8531 39.9093L93.4591 41.2223L96.6635 34.3093L92.0575 32.9834Z" fill="#AAAAAA"/>
</g>
<defs>
<clipPath id="clip0_0_265">
<rect width="162" height="162" fill="white"/>
</clipPath>
</defs>
</svg>
