<svg width="162" height="162" viewBox="0 0 162 162" fill="none" xmlns="http://www.w3.org/2000/svg">
<g clip-path="url(#clip0_0_292)">
<path d="M161.998 54.7045L162 27.9747L130.45 27.8388L130.433 33.7049L149.409 33.787L115.602 54.9249L115.604 25.4636C115.604 25.4611 115.604 25.4611 115.604 25.4584C115.602 24.4222 115.142 23.4629 114.389 22.9371L82.1595 0.406234C81.3807 -0.137543 80.416 -0.134977 79.6412 0.411366L47.6154 22.9396C46.865 23.4681 46.4041 24.4248 46.4041 25.4611L46.4021 54.9249L13.3096 33.7742L31.5757 33.6998L31.5584 27.8337L4.19062 27.9465L3.65625 27.6053L3.49832 27.9516L0.00865238 27.967L0.00649013 54.6996H4.95432L4.95647 35.1028L46.3996 61.5865L46.3976 98.1966L44.2276 99.5534L46.3976 104.427V104.429L44.2276 99.5534L4.94784 124.113L4.94999 105.045H0.00216227L0 131.777L31.5497 131.913L31.5671 126.047L12.5935 125.965L46.3956 104.829L46.3932 134.288C46.3932 135.327 46.8561 136.286 47.6114 136.815L79.8405 159.346C80.2277 159.618 80.6626 159.754 81.0972 159.754C81.5342 159.754 81.9716 159.615 82.3588 159.343L114.382 136.817C115.133 136.289 115.594 135.332 115.594 134.296L115.596 105.819L149.586 127.545L130.422 127.625L130.44 133.49L161.989 133.36L161.991 106.627H157.044L157.041 125.647L117.783 100.556L115.594 99.1558L115.596 61.5605L157.048 35.6415L157.046 54.7094H161.998V54.7045ZM80.9048 6.33906L108.27 25.4713L81.1017 44.5804L53.7338 25.4508L80.9048 6.33906ZM51.3455 101.734L65.4492 92.9149L60.2891 89.5114L51.3475 95.1029L51.352 30.591L78.6352 49.6618L78.6287 151.684L51.3455 132.611V101.734ZM110.652 102.652L110.65 132.621L83.5722 151.669L83.5786 49.6589L110.657 30.6141L110.652 95.9904L100.348 89.4034L95.5646 93.0101L110.652 102.652Z" fill="#AAAAAA"/>
</g>
<defs>
<clipPath id="clip0_0_292">
<rect width="162" height="162" fill="white"/>
</clipPath>
</defs>
</svg>
