<svg width="162" height="162" viewBox="0 0 162 162" fill="none" xmlns="http://www.w3.org/2000/svg">
<g clip-path="url(#clip0_0_289)">
<path d="M133.191 34.3471L145.334 20.8731L139.85 16.7452L127.664 30.2192C114.905 21.3896 99.4127 16.2988 83.3004 15.6418V6.49038H96.7486V0H62.8018V6.49038H76.25V15.6418C33.8744 17.3683 1.6787e-05 49.3529 1.6787e-05 88.4768C-0.009194 101.424 3.77213 114.148 10.9675 125.381L17.0895 122.097C10.537 111.863 7.09571 100.271 7.10856 88.4768C7.10856 51.8451 39.7354 22.0543 79.8191 22.0543C119.902 22.0543 152.529 51.9099 152.529 88.49C152.529 125.07 119.873 154.965 79.79 154.965C64.8201 154.945 50.2317 150.738 38.067 142.931H53.4592V136.441H25.6198V162H32.7284V147.358C46.3107 156.467 62.8158 161.411 79.79 161.455C123.79 161.455 159.579 128.743 159.579 88.5416C159.618 78.3655 157.292 68.2931 152.749 58.9634C148.207 49.6341 141.546 41.2513 133.191 34.3471Z" fill="#AAAAAA"/>
<path d="M83.3004 88.4773H83.344V34.6979H76.2355V85.2323H31.3938V91.7224H83.3004V88.4773Z" fill="#AAAAAA"/>
</g>
<defs>
<clipPath id="clip0_0_289">
<rect width="162" height="162" fill="white"/>
</clipPath>
</defs>
</svg>
